<svg id="Layer_1" data-name="Layer 1" xmlns="http://www.w3.org/2000/svg" viewBox="0 0 512 512"><title>shutter-glyph</title><path d="M3.62,213.33H178l-153,153a254.94,254.94,0,0,1-21.41-153ZM107.77,47.48A257.14,257.14,0,0,0,14.68,170.67H231Zm296.46,417a257.14,257.14,0,0,0,93.09-123.19H281ZM298.67,3.62A255,255,0,0,0,145.66,25l153,153Zm-128,493.7V281L47.48,404.23A257.14,257.14,0,0,0,170.67,497.32ZM341.33,14.68V231L464.52,107.77A257.13,257.13,0,0,0,341.33,14.68Zm-128,493.7a255,255,0,0,0,153-21.41l-153-153ZM487,145.66l-153,153H508.38a254.95,254.95,0,0,0-21.41-153Z"/></svg>